<svg width="320" height="270" viewBox="0 0 320 270" xmlns="http://www.w3.org/2000/svg" font-family="ui-monospace, Menlo, Consolas, monospace">
  <rect x="0" y="0" width="320" height="270" rx="12" fill="#0d0f14"/>

  <text x="20" y="30" font-size="11" letter-spacing="1" fill="#5a5c64">CENSIMENTO</text>
  <text x="300" y="30" font-size="11" fill="#3a3c44" text-anchor="end">6 specie</text>

  <defs>
    <clipPath id="listClip"><rect x="16" y="40" width="288" height="150"/></clipPath>
    <linearGradient id="fade" x1="0" y1="0" x2="0" y2="1">
      <stop offset="0%" stop-color="#0d0f14" stop-opacity="0"/>
      <stop offset="100%" stop-color="#0d0f14" stop-opacity="1"/>
    </linearGradient>
  </defs>

  <g clip-path="url(#listClip)">
    <circle cx="26" cy="56" r="4" fill="#E24B4A"/>
    <text x="38" y="60" font-size="13" fill="#c8c9ce">Nyx</text>
    <polygon points="188,52 194,52 191,47" fill="#5DCAA5"/>
    <text x="200" y="60" font-size="12" fill="#8f9199">7.4</text>
    <text x="292" y="60" font-size="12" fill="#8f9199" text-anchor="end">96</text>
    <line x1="16" y1="70" x2="304" y2="70" stroke="#1a1c22" stroke-width="0.5"/>

    <circle cx="26" cy="86" r="4" fill="#639922"/>
    <text x="38" y="90" font-size="13" fill="#c8c9ce">Kael</text>
    <rect x="188" y="84" width="7" height="1.6" fill="#888780"/>
    <text x="200" y="90" font-size="12" fill="#8f9199">5.6</text>
    <text x="292" y="90" font-size="12" fill="#8f9199" text-anchor="end">37</text>
    <line x1="16" y1="100" x2="304" y2="100" stroke="#1a1c22" stroke-width="0.5"/>

    <circle cx="26" cy="116" r="4" fill="#7F77DD"/>
    <text x="38" y="120" font-size="13" fill="#c8c9ce">Sable</text>
    <polygon points="188,114 194,114 191,119" fill="#E24B4A"/>
    <text x="200" y="120" font-size="12" fill="#8f9199">5.0</text>
    <text x="292" y="120" font-size="12" fill="#8f9199" text-anchor="end">3</text>
    <line x1="16" y1="130" x2="304" y2="130" stroke="#1a1c22" stroke-width="0.5"/>

    <circle cx="26" cy="146" r="4" fill="#EF9F27"/>
    <text x="38" y="150" font-size="13" fill="#c8c9ce">Orix</text>
    <polygon points="188,142 194,142 191,137" fill="#5DCAA5"/>
    <text x="200" y="150" font-size="12" fill="#8f9199">8.1</text>
    <text x="292" y="150" font-size="12" fill="#8f9199" text-anchor="end">21</text>
    <line x1="16" y1="160" x2="304" y2="160" stroke="#1a1c22" stroke-width="0.5"/>

    <circle cx="26" cy="176" r="4" fill="#1D9E75"/>
    <text x="38" y="180" font-size="13" fill="#c8c9ce">Tholus</text>
    <rect x="188" y="174" width="7" height="1.6" fill="#888780"/>
    <text x="200" y="180" font-size="12" fill="#8f9199">4.2</text>
    <text x="292" y="180" font-size="12" fill="#8f9199" text-anchor="end">12</text>

    <circle cx="26" cy="206" r="4" fill="#D4537E"/>
    <text x="38" y="210" font-size="13" fill="#c8c9ce">Verin</text>
    <polygon points="188,204 194,204 191,209" fill="#E24B4A"/>
    <text x="200" y="210" font-size="12" fill="#8f9199">2.0</text>
    <text x="292" y="210" font-size="12" fill="#8f9199" text-anchor="end">2</text>
  </g>

  <rect x="16" y="150" width="288" height="40" fill="url(#fade)"/>

  <text x="160" y="206" font-size="10.5" fill="#3a3c44" text-anchor="middle">scorri per vedere tutte</text>

  <text x="20" y="232" font-size="10.5" fill="#5a5c64">▲ verde = energia media in crescita   ▼ rosso = in calo   ▬ grigio = stabile</text>
  <text x="20" y="250" font-size="10.5" fill="#5a5c64">soglia di riproduzione per specie: vedi Catalog nel notebook</text>
</svg>
